<?xml version="1.0" encoding="utf-8"?>
<!-- Generator: Adobe Illustrator 27.7.0, SVG Export Plug-In . SVG Version: 6.00 Build 0)  -->
<svg version="1.1" id="Capa_1" xmlns="http://www.w3.org/2000/svg" xmlns:xlink="http://www.w3.org/1999/xlink" x="0px" y="0px"
	 viewBox="0 0 311.5 271.3" style="enable-background:new 0 0 311.5 271.3;" xml:space="preserve">
<style type="text/css">
	.st0{fill:#4F854E;}
	.st1{fill:#88BE55;}
	.st2{fill:none;stroke:#FFFFFF;stroke-miterlimit:10;}
</style>
<polygon class="st0" points="209.2,80.6 209.2,94 207.5,104.1 192.5,134 189.6,142.7 195.8,147.5 193.5,156.1 177.8,156.1 
	174.5,153.9 162.7,153.9 162.7,161.1 166.9,167.5 166.9,172.2 171,173.3 180.9,173.3 184,176.2 184,178.4 182.1,178.4 181.3,180.3 
	184.6,181.1 184.6,186.1 182.5,186.3 183.2,188.5 185.4,189.8 188.3,193.7 189.6,200.1 192.2,204.4 193.1,211.3 201.5,218.5 
	201.5,222.2 190.4,230.4 191.8,233.5 193.3,233.5 193.3,239.7 191.2,239.7 191.2,243.3 253.1,269.5 255.6,267.2 269.2,264.5 
	269.2,188.7 272.1,188.7 272.1,181.5 266.8,175.1 266.8,169.5 277.3,159.8 286,159.8 298.2,141.1 298.2,135.1 301,135.1 307.8,99.2 
	308.7,98.3 308.7,94.6 305.2,90.5 280.2,86.6 278.3,90.9 274.8,90.9 266.4,99.8 274.2,114.2 259.1,127 243,127 219.5,78.7 "/>
<polygon class="st0" points="84.9,160.6 91.4,154.1 91.4,145.7 90,145.7 90,136.1 86.7,133.3 86.7,124.6 85.4,124.6 85.4,120 
	84,120 84,111 92.4,111 92.4,95.2 98.9,90.7 98.9,87 100.6,87 100.6,89.2 103.1,89.2 103.1,85.5 107.6,80 113,80 114.6,82.2 
	115.9,82.2 118.5,76 130.1,76 130.1,81.6 128.7,81.6 128.7,88.8 131.3,88.8 131.3,90.9 134.7,90.9 137.9,93.4 139.6,93.4 
	142.3,90.7 145,90.7 148.1,90.7 149.9,85.7 152.2,85.7 152.2,87.2 155.7,87.2 158.8,89.4 156.7,94 155.1,101.6 151,101.6 151,104.1 
	153.6,109.1 153.6,125.2 152,135.3 150.8,137.3 150.8,145 152.4,145 152.4,150.4 155.6,153.6 153.2,157.8 149.7,158.2 146,160 
	140,168.3 140,172.9 137.7,173.3 136.5,175.7 132.6,173.1 123.1,173.1 118.5,171 114.6,166.9 112.4,166.9 112.4,168.9 104.9,168.9 
	99.8,172.4 99.8,173.7 94.6,173.7 92.1,171 87.4,170 84.9,170 "/>
<polygon class="st1" points="102.3,55 102.3,3 96.5,3 93.2,1.8 87.9,1.8 85,3.8 83.8,8 82.5,14.6 80.1,19.9 78,23.2 71.8,29 
	65.2,29.4 61.9,32.3 57,32.3 55.7,28.6 51.6,28.6 50.8,31.9 52,34.8 47.9,38.1 47.9,45.9 38,45.9 35.9,49.2 43,49.2 42.1,53.3 
	43,56.2 38.8,61.1 35.9,58.7 31.8,63.6 32,65.3 29.8,65.3 29.8,66.4 32.8,66.4 32.8,67.7 31.1,68.1 22.4,73.2 20.2,79.3 2.9,90.6 
	2.9,95.5 5.7,95.5 5.7,97 6.7,98 7.6,98.5 11.9,98.5 11.9,99.8 15.4,99.8 17.1,102.2 18.8,102.2 22,99.9 27.8,99.9 27.8,101.4 
	25.5,101.4 24.3,102.2 23.4,101 21.7,101 21.7,105.2 22.6,105.2 22.6,108.5 23.8,108.5 23.8,111.8 25,111.8 25,115.2 32,118.4 
	32,120.3 28.2,120.3 28.2,122.3 29.8,125.2 29.8,128.1 27.3,128.1 27.3,124.9 26.2,124.9 26.2,123.9 25.1,123.9 25.1,122.4 
	23.1,122.4 23.1,125.2 21.7,125.2 21.7,123.5 19.6,123.5 19.6,121.9 21.1,121.9 21.1,120.8 21.1,117.5 20.2,117.5 20.2,114.9 
	19.2,114.9 19.2,110.4 17.8,110.4 17.8,120 16.4,121.4 16.4,123.3 12.1,123.3 12.1,120.9 14.7,120.9 14.7,117.7 13.5,117.7 
	13.5,115.7 15.8,115.7 15.8,113.4 14.8,113.4 14.8,112.3 11.6,112.3 11.6,113.7 8.3,113.7 8.3,115.5 6.2,115.5 6.2,117.6 7.4,117.6 
	7.4,120.1 4.3,120.1 4.3,118 2.8,118 2.8,134.9 21.9,134.9 23.9,136.6 27.4,136.6 33.4,130.5 35.3,130.5 35.3,131.9 37,131.9 
	45.4,134 54.6,139 58.5,139 58.5,141.6 61.8,143.5 61.8,146.2 73.5,152.4 73.5,155.8 81,155.8 85.3,160.6 91.4,154.1 91.4,145.7 
	90,145.7 90,136.1 86.7,133.3 86.7,124.6 85.4,124.6 85.4,120 84,120 84,111 92.4,111 92.4,68.7 84.3,68.7 84.3,63.3 89.3,63.3 
	89.3,64.5 93.6,64.5 93.6,57.3 99.3,57.3 "/>
<polygon class="st1" points="162.7,153.9 174.5,153.9 177.8,156.1 193.5,156.1 195.8,147.5 189.6,142.7 192.5,134 207.5,104.1 
	209.2,94 209.2,80.6 181.7,75.2 178,72.9 174.9,72.9 176.1,75.8 173.2,89.5 162.5,86.8 162.5,84.9 159.8,84.9 159.8,88 158.8,89.4 
	156.7,94 155.1,101.6 151,101.6 151,104.1 153.6,109.1 153.6,125.2 152,135.3 150.8,137.3 150.8,145 152.4,145 152.4,150.4 
	155.6,153.6 158.2,152.2 160.9,152.2 "/>
<g>
	<path d="M41,86.4c-0.3,0.1-0.8,0.3-1.6,0.3c-2.1,0-3.2-1.3-3.2-3c0-2.1,1.5-3.2,3.3-3.2c0.7,0,1.3,0.1,1.5,0.3l-0.3,1.1
		c-0.3-0.1-0.7-0.2-1.2-0.2c-1.1,0-1.9,0.7-1.9,2c0,1.2,0.7,2,1.9,2c0.4,0,0.9-0.1,1.1-0.2L41,86.4z"/>
	<path d="M45.8,85.2c0,0.6,0,1,0,1.4h-1.2L44.6,86h0c-0.2,0.3-0.6,0.7-1.4,0.7c-0.9,0-1.5-0.6-1.5-1.9v-2.6H43v2.4
		c0,0.6,0.2,1,0.7,1c0.4,0,0.6-0.3,0.7-0.5c0-0.1,0-0.2,0-0.3v-2.6h1.4V85.2z"/>
	<path d="M49.4,86.6l-0.1-0.4h0c-0.3,0.4-0.7,0.5-1.3,0.5c-0.9,0-1.4-0.6-1.4-1.3c0-1.1,1-1.7,2.6-1.7v-0.1c0-0.2-0.1-0.6-0.8-0.6
		c-0.5,0-0.9,0.2-1.2,0.3l-0.3-0.9c0.3-0.2,0.9-0.4,1.7-0.4c1.5,0,1.9,0.9,1.9,1.9v1.5c0,0.4,0,0.8,0.1,1.1H49.4z M49.2,84.5
		c-0.7,0-1.3,0.2-1.3,0.7c0,0.4,0.2,0.5,0.5,0.5c0.3,0,0.6-0.2,0.7-0.5c0-0.1,0-0.2,0-0.2V84.5z"/>
	<path d="M55.8,85.2c0,0.6,0,1,0,1.4h-1.2L54.6,86h0c-0.2,0.3-0.6,0.7-1.4,0.7c-0.9,0-1.5-0.6-1.5-1.9v-2.6H53v2.4
		c0,0.6,0.2,1,0.7,1c0.4,0,0.6-0.3,0.7-0.5c0-0.1,0-0.2,0-0.3v-2.6h1.4V85.2z"/>
	<path d="M58.4,80.9v1.3h1v1h-1v1.6c0,0.5,0.1,0.8,0.5,0.8c0.2,0,0.3,0,0.4,0l0,1c-0.2,0.1-0.5,0.1-0.9,0.1c-0.4,0-0.8-0.2-1-0.4
		c-0.3-0.3-0.4-0.7-0.4-1.3v-1.8h-0.6v-1h0.6v-1L58.4,80.9z"/>
	<path d="M61.6,81c0,0.4-0.3,0.7-0.7,0.7c-0.4,0-0.7-0.3-0.7-0.7c0-0.4,0.3-0.7,0.7-0.7S61.6,80.6,61.6,81z M60.2,86.6v-4.4h1.4v4.4
		H60.2z"/>
	<path d="M64.2,80.9v1.3h1v1h-1v1.6c0,0.5,0.1,0.8,0.5,0.8c0.2,0,0.3,0,0.4,0l0,1c-0.2,0.1-0.5,0.1-0.9,0.1c-0.4,0-0.8-0.2-1-0.4
		C63,86,62.9,85.6,62.9,85v-1.8h-0.6v-1h0.6v-1L64.2,80.9z"/>
	<path d="M66,80.2h1.4v6.4H66V80.2z"/>
	<path d="M70.9,86.6l-0.1-0.4h0c-0.3,0.4-0.7,0.5-1.3,0.5c-0.9,0-1.4-0.6-1.4-1.3c0-1.1,1-1.7,2.6-1.7v-0.1c0-0.2-0.1-0.6-0.8-0.6
		c-0.5,0-0.9,0.2-1.2,0.3l-0.3-0.9c0.3-0.2,0.9-0.4,1.7-0.4c1.5,0,1.9,0.9,1.9,1.9v1.5c0,0.4,0,0.8,0.1,1.1H70.9z M70.8,84.5
		c-0.7,0-1.3,0.2-1.3,0.7c0,0.4,0.2,0.5,0.5,0.5c0.3,0,0.6-0.2,0.7-0.5c0-0.1,0-0.2,0-0.2V84.5z M71.7,80.3l-1.1,1.4h-0.9l0.8-1.4
		H71.7z"/>
	<path d="M73.2,83.6c0-0.5,0-1,0-1.4h1.2l0.1,0.6h0c0.2-0.3,0.6-0.7,1.4-0.7c0.9,0,1.6,0.6,1.6,1.9v2.6H76v-2.4c0-0.6-0.2-1-0.7-1
		c-0.4,0-0.6,0.3-0.7,0.5c0,0.1-0.1,0.2-0.1,0.3v2.5h-1.4V83.6z"/>
	<path d="M47.4,91.3v6.1H46v-6.1H47.4z"/>
	<path d="M48.2,96.6l1.4-1.7c0.3-0.3,0.5-0.5,0.7-0.8v0h-1.9V93H52v0.8l-1.3,1.7c-0.2,0.3-0.5,0.6-0.7,0.8v0H52v1.1h-3.8V96.6z"/>
	<path d="M56,97.3c-0.2,0.1-0.7,0.2-1.2,0.2c-1.4,0-2.3-0.9-2.3-2.3c0-1.3,0.9-2.3,2.5-2.3c0.4,0,0.8,0.1,1,0.2l-0.2,1
		c-0.2-0.1-0.4-0.1-0.8-0.1c-0.7,0-1.2,0.5-1.2,1.2c0,0.8,0.5,1.2,1.2,1.2c0.3,0,0.6-0.1,0.8-0.1L56,97.3z"/>
	<path d="M59.3,97.4l-0.1-0.4h0c-0.3,0.4-0.7,0.5-1.3,0.5c-0.9,0-1.4-0.6-1.4-1.3c0-1.1,1-1.7,2.6-1.7v-0.1c0-0.2-0.1-0.6-0.8-0.6
		c-0.5,0-0.9,0.2-1.2,0.3l-0.3-0.9c0.3-0.2,0.9-0.4,1.7-0.4c1.5,0,1.9,0.9,1.9,1.9v1.5c0,0.4,0,0.8,0.1,1.1H59.3z M59.2,95.3
		c-0.7,0-1.3,0.2-1.3,0.7c0,0.4,0.2,0.5,0.5,0.5c0.3,0,0.6-0.2,0.7-0.5c0-0.1,0-0.2,0-0.2V95.3z"/>
	<path d="M61.6,91h1.4v6.4h-1.4V91z"/>
	<path d="M64,91h1.4v6.4H64V91z"/>
	<path d="M67.9,91.8c0,0.4-0.3,0.7-0.7,0.7c-0.4,0-0.7-0.3-0.7-0.7c0-0.4,0.3-0.7,0.7-0.7S67.9,91.4,67.9,91.8z M66.5,97.4V93h1.4
		v4.4H66.5z"/>
</g>
<g>
	<path d="M104.5,126.2h-1.6V125h4.7v1.2h-1.7v4.9h-1.4V126.2z"/>
	<path d="M111.9,129.7c0,0.6,0,1,0,1.4h-1.2l-0.1-0.6h0c-0.2,0.3-0.6,0.7-1.4,0.7c-0.9,0-1.5-0.6-1.5-1.9v-2.6h1.4v2.4
		c0,0.6,0.2,1,0.7,1c0.4,0,0.6-0.3,0.7-0.5c0-0.1,0-0.2,0-0.3v-2.6h1.4V129.7z"/>
	<path d="M113,124.7h1.4v6.4H113V124.7z"/>
	<path d="M117,125.4v1.3h1v1h-1v1.6c0,0.5,0.1,0.8,0.5,0.8c0.2,0,0.3,0,0.4,0l0,1c-0.2,0.1-0.5,0.1-0.9,0.1c-0.4,0-0.8-0.2-1-0.4
		c-0.3-0.3-0.4-0.7-0.4-1.3v-1.8h-0.6v-1h0.6v-1L117,125.4z"/>
	<path d="M120.2,125.5c0,0.4-0.3,0.7-0.7,0.7c-0.4,0-0.7-0.3-0.7-0.7c0-0.4,0.3-0.7,0.7-0.7S120.2,125.1,120.2,125.5z M118.8,131.1
		v-4.4h1.4v4.4H118.8z"/>
	<path d="M122.8,125.4v1.3h1v1h-1v1.6c0,0.5,0.1,0.8,0.5,0.8c0.2,0,0.3,0,0.4,0l0,1c-0.2,0.1-0.5,0.1-0.9,0.1c-0.4,0-0.8-0.2-1-0.4
		c-0.3-0.3-0.4-0.7-0.4-1.3v-1.8h-0.6v-1h0.6v-1L122.8,125.4z"/>
	<path d="M124.6,124.7h1.4v6.4h-1.4V124.7z"/>
	<path d="M129.5,131.1l-0.1-0.4h0c-0.3,0.4-0.7,0.5-1.3,0.5c-0.9,0-1.4-0.6-1.4-1.3c0-1.1,1-1.7,2.6-1.7v-0.1c0-0.2-0.1-0.6-0.8-0.6
		c-0.5,0-0.9,0.2-1.2,0.3l-0.3-0.9c0.3-0.2,0.9-0.4,1.7-0.4c1.5,0,1.9,0.9,1.9,1.9v1.5c0,0.4,0,0.8,0.1,1.1H129.5z M129.4,129
		c-0.7,0-1.3,0.2-1.3,0.7c0,0.4,0.2,0.5,0.5,0.5c0.3,0,0.6-0.2,0.7-0.5c0-0.1,0-0.2,0-0.2V129z M130.3,124.8l-1.1,1.4h-0.9l0.8-1.4
		H130.3z"/>
	<path d="M131.8,128.1c0-0.5,0-1,0-1.4h1.2l0.1,0.6h0c0.2-0.3,0.6-0.7,1.4-0.7c0.9,0,1.6,0.6,1.6,1.9v2.6h-1.4v-2.4
		c0-0.6-0.2-1-0.7-1c-0.4,0-0.6,0.3-0.7,0.5c0,0.1-0.1,0.2-0.1,0.3v2.5h-1.4V128.1z"/>
</g>
<g>
	<path d="M164.9,115.2c-0.3,0.1-0.8,0.3-1.6,0.3c-2.1,0-3.2-1.3-3.2-3c0-2.1,1.5-3.2,3.3-3.2c0.7,0,1.3,0.1,1.5,0.3l-0.3,1.1
		c-0.3-0.1-0.7-0.2-1.2-0.2c-1.1,0-1.9,0.7-1.9,2c0,1.2,0.7,2,1.9,2c0.4,0,0.9-0.1,1.1-0.2L164.9,115.2z"/>
	<path d="M170,113.2c0,1.6-1.1,2.3-2.3,2.3c-1.3,0-2.3-0.8-2.3-2.3c0-1.4,0.9-2.3,2.3-2.3C169.1,110.9,170,111.8,170,113.2z
		 M166.8,113.2c0,0.8,0.3,1.3,0.9,1.3c0.5,0,0.9-0.5,0.9-1.3c0-0.7-0.3-1.3-0.9-1.3C167,111.9,166.8,112.5,166.8,113.2z"/>
	<path d="M173.3,115.4l-0.1-0.4h0c-0.3,0.4-0.7,0.5-1.3,0.5c-0.9,0-1.4-0.6-1.4-1.3c0-1.1,1-1.7,2.6-1.7v-0.1c0-0.2-0.1-0.6-0.8-0.6
		c-0.5,0-0.9,0.2-1.2,0.3l-0.3-0.9c0.3-0.2,0.9-0.4,1.7-0.4c1.5,0,1.9,0.9,1.9,1.9v1.5c0,0.4,0,0.8,0.1,1.1H173.3z M173.2,113.3
		c-0.7,0-1.3,0.2-1.3,0.7c0,0.4,0.2,0.5,0.5,0.5c0.3,0,0.6-0.2,0.7-0.5c0-0.1,0-0.2,0-0.2V113.3z"/>
	<path d="M178.9,115.3c-0.2,0.1-0.7,0.2-1.2,0.2c-1.4,0-2.3-0.9-2.3-2.2c0-1.3,0.9-2.3,2.5-2.3c0.4,0,0.8,0.1,1,0.2l-0.2,1
		c-0.2-0.1-0.4-0.1-0.8-0.1c-0.7,0-1.2,0.5-1.2,1.2c0,0.8,0.5,1.2,1.2,1.2c0.3,0,0.6-0.1,0.8-0.1L178.9,115.3z"/>
	<path d="M182.2,115.4l-0.1-0.4h0c-0.3,0.4-0.7,0.5-1.3,0.5c-0.9,0-1.4-0.6-1.4-1.3c0-1.1,1-1.7,2.6-1.7v-0.1c0-0.2-0.1-0.6-0.8-0.6
		c-0.5,0-0.9,0.2-1.2,0.3l-0.3-0.9c0.3-0.2,0.9-0.4,1.7-0.4c1.5,0,1.9,0.9,1.9,1.9v1.5c0,0.4,0,0.8,0.1,1.1H182.2z M182,113.3
		c-0.7,0-1.3,0.2-1.3,0.7c0,0.4,0.2,0.5,0.5,0.5c0.3,0,0.6-0.2,0.7-0.5c0-0.1,0-0.2,0-0.2V113.3z"/>
	<path d="M184.4,109h1.4v6.4h-1.4V109z"/>
	<path d="M190.2,115.3c-0.2,0.1-0.7,0.2-1.2,0.2c-1.4,0-2.3-0.9-2.3-2.2c0-1.3,0.9-2.3,2.5-2.3c0.4,0,0.8,0.1,1,0.2l-0.2,1
		c-0.2-0.1-0.4-0.1-0.8-0.1c-0.7,0-1.2,0.5-1.2,1.2c0,0.8,0.5,1.2,1.2,1.2c0.3,0,0.6-0.1,0.8-0.1L190.2,115.3z"/>
	<path d="M195.2,113.2c0,1.6-1.1,2.3-2.3,2.3c-1.3,0-2.3-0.8-2.3-2.3c0-1.4,0.9-2.3,2.3-2.3C194.3,110.9,195.2,111.8,195.2,113.2z
		 M192,113.2c0,0.8,0.3,1.3,0.9,1.3c0.5,0,0.9-0.5,0.9-1.3c0-0.7-0.3-1.3-0.9-1.3C192.3,111.9,192,112.5,192,113.2z"/>
</g>
<g>
	<path d="M214,177.7h-2.2v1.4h2.5v1.1h-3.9v-6.1h3.7v1.1h-2.4v1.3h2.2V177.7z"/>
	<path d="M218.4,180.1c-0.2,0.1-0.7,0.2-1.2,0.2c-1.4,0-2.3-0.9-2.3-2.2c0-1.3,0.9-2.3,2.5-2.3c0.4,0,0.8,0.1,1,0.2l-0.2,1
		c-0.2-0.1-0.4-0.1-0.8-0.1c-0.7,0-1.2,0.5-1.2,1.2c0,0.8,0.5,1.2,1.2,1.2c0.3,0,0.6-0.1,0.8-0.1L218.4,180.1z"/>
	<path d="M221.7,180.2l-0.1-0.4h0c-0.3,0.4-0.7,0.5-1.3,0.5c-0.9,0-1.4-0.6-1.4-1.3c0-1.1,1-1.7,2.6-1.7v-0.1c0-0.2-0.1-0.6-0.8-0.6
		c-0.5,0-0.9,0.2-1.2,0.3l-0.3-0.9c0.3-0.2,0.9-0.4,1.7-0.4c1.5,0,1.9,0.9,1.9,1.9v1.5c0,0.4,0,0.8,0.1,1.1H221.7z M221.6,178.2
		c-0.7,0-1.3,0.2-1.3,0.7c0,0.4,0.2,0.5,0.5,0.5c0.3,0,0.6-0.2,0.7-0.5c0-0.1,0-0.2,0-0.2V178.2z"/>
	<path d="M225.4,174.6v1.3h1v1h-1v1.6c0,0.5,0.1,0.8,0.5,0.8c0.2,0,0.3,0,0.4,0l0,1c-0.2,0.1-0.5,0.1-0.9,0.1c-0.4,0-0.8-0.2-1-0.4
		c-0.3-0.3-0.4-0.7-0.4-1.3v-1.8h-0.6v-1h0.6v-1L225.4,174.6z"/>
	<path d="M228.2,178.5c0,0.6,0.6,0.8,1.2,0.8c0.5,0,0.8-0.1,1.2-0.2l0.2,0.9c-0.5,0.2-1,0.3-1.6,0.3c-1.5,0-2.3-0.9-2.3-2.2
		c0-1.1,0.7-2.3,2.2-2.3c1.4,0,2,1.1,2,2.2c0,0.2,0,0.4,0,0.5H228.2z M229.8,177.5c0-0.3-0.1-0.9-0.8-0.9c-0.6,0-0.8,0.5-0.8,0.9
		H229.8z"/>
	<path d="M231.9,177.3c0-0.6,0-1.1,0-1.5h1.2l0.1,0.6h0c0.3-0.5,0.8-0.7,1.5-0.7c1,0,1.8,0.8,1.8,2.2c0,1.6-1,2.4-2,2.4
		c-0.5,0-0.9-0.2-1.1-0.5h0v2.2h-1.4V177.3z M233.3,178.3c0,0.1,0,0.2,0,0.3c0.1,0.4,0.4,0.6,0.8,0.6c0.6,0,0.9-0.5,0.9-1.2
		c0-0.7-0.3-1.2-0.9-1.2c-0.4,0-0.7,0.3-0.8,0.7c0,0.1,0,0.2,0,0.2V178.3z"/>
	<path d="M238.4,178.5c0,0.6,0.6,0.8,1.2,0.8c0.5,0,0.8-0.1,1.2-0.2l0.2,0.9c-0.5,0.2-1,0.3-1.6,0.3c-1.5,0-2.3-0.9-2.3-2.2
		c0-1.1,0.7-2.3,2.2-2.3c1.4,0,2,1.1,2,2.2c0,0.2,0,0.4,0,0.5H238.4z M240,177.5c0-0.3-0.1-0.9-0.8-0.9c-0.6,0-0.8,0.5-0.8,0.9H240z
		"/>
	<path d="M245.4,180.1c-0.2,0.1-0.7,0.2-1.2,0.2c-1.4,0-2.3-0.9-2.3-2.2c0-1.3,0.9-2.3,2.5-2.3c0.4,0,0.8,0.1,1,0.2l-0.2,1
		c-0.2-0.1-0.4-0.1-0.8-0.1c-0.7,0-1.2,0.5-1.2,1.2c0,0.8,0.5,1.2,1.2,1.2c0.3,0,0.6-0.1,0.8-0.1L245.4,180.1z"/>
</g>
<polygon class="st2" points="209.2,80.6 209.2,94 207.5,104.1 192.5,134 189.6,142.7 195.8,147.5 193.5,156.1 177.8,156.1 
	174.5,153.9 162.7,153.9 162.7,161.1 166.9,167.5 166.9,172.2 171,173.3 180.9,173.3 184,176.2 184,178.4 182.1,178.4 181.3,180.3 
	184.6,181.1 184.6,186.1 182.5,186.3 183.2,188.5 185.4,189.8 188.3,193.7 189.6,200.1 192.2,204.4 193.1,211.3 201.5,218.5 
	201.5,222.2 190.4,230.4 191.8,233.5 193.3,233.5 193.3,239.7 191.2,239.7 191.2,243.3 253.1,269.5 255.6,267.2 269.2,264.5 
	269.2,188.7 272.1,188.7 272.1,181.5 266.8,175.1 266.8,169.5 277.3,159.8 286,159.8 298.2,141.1 298.2,135.1 301,135.1 307.8,99.2 
	308.7,98.3 308.7,94.6 305.2,90.5 280.2,86.6 278.3,90.9 274.8,90.9 266.4,99.8 274.2,114.2 259.1,127 243,127 219.5,78.7 "/>
<polygon class="st2" points="84.9,160.6 91.4,154.1 91.4,145.7 90,145.7 90,136.1 86.7,133.3 86.7,124.6 85.4,124.6 85.4,120 
	84,120 84,111 92.4,111 92.4,95.2 98.9,90.7 98.9,87 100.6,87 100.6,89.2 103.1,89.2 103.1,85.5 107.6,80 113,80 114.6,82.2 
	115.9,82.2 118.5,76 130.1,76 130.1,81.6 128.7,81.6 128.7,88.8 131.3,88.8 131.3,90.9 134.7,90.9 137.9,93.4 139.6,93.4 
	142.3,90.7 145,90.7 148.1,90.7 149.9,85.7 152.2,85.7 152.2,87.2 155.7,87.2 158.8,89.4 156.7,94 155.1,101.6 151,101.6 151,104.1 
	153.6,109.1 153.6,125.2 152,135.3 150.8,137.3 150.8,145 152.4,145 152.4,150.4 155.6,153.6 153.2,157.8 149.7,158.2 146,160 
	140,168.3 140,172.9 137.7,173.3 136.5,175.7 132.6,173.1 123.1,173.1 118.5,171 114.6,166.9 112.4,166.9 112.4,168.9 104.9,168.9 
	99.8,172.4 99.8,173.7 94.6,173.7 92.1,171 87.4,170 84.9,170 "/>
<polygon class="st2" points="102.3,55 102.3,3 96.5,3 93.2,1.8 87.9,1.8 85,3.8 83.8,8 82.5,14.6 80.1,19.9 78,23.2 71.8,29 
	65.2,29.4 61.9,32.3 57,32.3 55.7,28.6 51.6,28.6 50.8,31.9 52,34.8 47.9,38.1 47.9,45.9 38,45.9 35.9,49.2 43,49.2 42.1,53.3 
	43,56.2 38.8,61.1 35.9,58.7 31.8,63.6 32,65.3 29.8,65.3 29.8,66.4 32.8,66.4 32.8,67.7 31.1,68.1 22.4,73.2 20.2,79.3 2.9,90.6 
	2.9,95.5 5.7,95.5 5.7,97 6.7,98 7.6,98.5 11.9,98.5 11.9,99.8 15.4,99.8 17.1,102.2 18.8,102.2 22,99.9 27.8,99.9 27.8,101.4 
	25.5,101.4 24.3,102.2 23.4,101 21.7,101 21.7,105.2 22.6,105.2 22.6,108.5 23.8,108.5 23.8,111.8 25,111.8 25,115.2 32,118.4 
	32,120.3 28.2,120.3 28.2,122.3 29.8,125.2 29.8,128.1 27.3,128.1 27.3,124.9 26.2,124.9 26.2,123.9 25.1,123.9 25.1,122.4 
	23.1,122.4 23.1,125.2 21.7,125.2 21.7,123.5 19.6,123.5 19.6,121.9 21.1,121.9 21.1,120.8 21.1,117.5 20.2,117.5 20.2,114.9 
	19.2,114.9 19.2,110.4 17.8,110.4 17.8,120 16.4,121.4 16.4,123.3 12.1,123.3 12.1,120.9 14.7,120.9 14.7,117.7 13.5,117.7 
	13.5,115.7 15.8,115.7 15.8,113.4 14.8,113.4 14.8,112.3 11.6,112.3 11.6,113.7 8.3,113.7 8.3,115.5 6.2,115.5 6.2,117.6 7.4,117.6 
	7.4,120.1 4.3,120.1 4.3,118 2.8,118 2.8,134.9 21.9,134.9 23.9,136.6 27.4,136.6 33.4,130.5 35.3,130.5 35.3,131.9 37,131.9 
	45.4,134 54.6,139 58.5,139 58.5,141.6 61.8,143.5 61.8,146.2 73.5,152.4 73.5,155.8 81,155.8 85.3,160.6 91.4,154.1 91.4,145.7 
	90,145.7 90,136.1 86.7,133.3 86.7,124.6 85.4,124.6 85.4,120 84,120 84,111 92.4,111 92.4,68.7 84.3,68.7 84.3,63.3 89.3,63.3 
	89.3,64.5 93.6,64.5 93.6,57.3 99.3,57.3 "/>
<polygon class="st2" points="162.7,153.9 174.5,153.9 177.8,156.1 193.5,156.1 195.8,147.5 189.6,142.7 192.5,134 207.5,104.1 
	209.2,94 209.2,80.6 181.7,75.2 178,72.9 174.9,72.9 176.1,75.8 173.2,89.5 162.5,86.8 162.5,84.9 159.8,84.9 159.8,88 158.8,89.4 
	156.7,94 155.1,101.6 151,101.6 151,104.1 153.6,109.1 153.6,125.2 152,135.3 150.8,137.3 150.8,145 152.4,145 152.4,150.4 
	155.6,153.6 158.2,152.2 160.9,152.2 "/>
</svg>
